# xmcd
# 
# Track frame offsets:
#     150
#     2244
#     20678
#     42689
#     44767
#     64592
#     85916
#     103591
#     107163
#     131295
#     152410
#     184153
#     206919
#     232216
#     250025
#     276673
#     280053
#     308207
#     309332
# 
# Disc length: 4438
# 
# Revision: 1
# Processed by: cddbd v1.5.2PL0 Copyright (c) Steve Scherf et al.
# Submitted via: fre:ac v1.0.31
# 
DISCID=15115413
DTITLE=Robert Cray - Authorized Bootleg - Live Outdoor Concert Austin Tx May 25 1987
DYEAR=2010
DGENRE=Blues
TTITLE0=Introduction
TTITLE1=I Guess I Showed Her
TTITLE2=Let's Have A Natural Ball
TTITLE3=Spoken Word Interlude
TTITLE4=Don't Touch Me
TTITLE5=Foul Play
TTITLE6=Bad Influence
TTITLE7=Spoken Word Interlude 2
TTITLE8=The Last Time (I Get Burned Like This)
TTITLE9=Still Around
TTITLE10=Back At The Chicken Shack
TTITLE11=False Accusations
TTITLE12=New Blood
TTITLE13=Phone Booth
TTITLE14=Playin' In The Dirt
TTITLE15=Spoken Word Interlude 3
TTITLE16=Smoking Gun
TTITLE17=Spoken Word Interlude 4
TTITLE18=Right Next Door (Because Of Me)
EXTD=
EXTT0=
EXTT1=
EXTT2=
EXTT3=
EXTT4=
EXTT5=
EXTT6=
EXTT7=
EXTT8=
EXTT9=
EXTT10=
EXTT11=
EXTT12=
EXTT13=
EXTT14=
EXTT15=
EXTT16=
EXTT17=
EXTT18=
PLAYORDER=
